<svg xmlns="http://www.w3.org/2000/svg" viewBox="0 0 100 100"><defs><style>.cls-1{fill-rule:evenodd;}.cls-2{fill:none;}</style></defs><g id="Layer_2" data-name="Layer 2"><g id="cp-a-4"><path class="cls-1" d="M46.3,19.45v37c0,.48,2.62,3,5.85,1.33,2.33-1.17,1.55-1.64,1.55-7,0-2-.12-31.91.06-32.4.26-.67,1.76-1.13,2,.5a3.42,3.42,0,0,0,.52,1.81A3.65,3.65,0,0,0,63,18.9c0-4.24-3.75-8.35-8-8.35a8.08,8.08,0,0,0-6.61,2.7,8.88,8.88,0,0,0-2.16,6.2M23.41,51.37c0,5.13,5,5.47,6.89,3.6,1.5-1.45,1.33-2.3,1.33-4.15,0-2.6-1.95-6.46-3.4-8.66-.41-.62-.37-.8-.85-.93C27.2,41.91,23.41,46.67,23.41,51.37Zm44.82-5.75c0,5.13,5,5.47,6.89,3.6,1.5-1.45,1.34-2.3,1.34-4.15,0-2.64-2.13-6.91-3.72-9.16-.22-.31-.11-.32-.53-.43a3.43,3.43,0,0,1-.61,1c-.26.4-.42.69-.67,1.11C69.65,39.77,68.23,42.92,68.23,45.62ZM34.51,30c0,5.13,5,5.47,6.89,3.6,1.5-1.45,1.33-2.3,1.33-4.15,0-2.6-1.94-6.46-3.39-8.66-.41-.62-.37-.8-.85-.93a3.43,3.43,0,0,1-.61,1c-.27.4-.42.7-.67,1.11C35.93,24.15,34.51,27.3,34.51,30ZM27.93,62.74a9.18,9.18,0,0,1-6.67-2.51L18,57.43a1.94,1.94,0,0,0-1.75-.72A33.69,33.69,0,0,0,24.2,77.57a29.46,29.46,0,0,0,3.49,3.49,33.19,33.19,0,0,0,8,5.28c5.75,2.45,8.82,3.11,15.4,3.11,4.93,0,8.82-1.3,13.1-3.07A25.67,25.67,0,0,0,66.81,85c.93-.5,1.69-1,2.52-1.59a40.55,40.55,0,0,0,4.42-3.67,34,34,0,0,0,8.9-15.35,29.28,29.28,0,0,0,1.07-7.7c-1.12,0-1.85.67-2.77,1.61-.42.43-.7.56-1.1,1-2.31,2.24-4.54,3.46-7.78,3.46-5.15,0-8.26-6.16-11-6.16-.9,0-1.91,1.15-2.43,1.67-2,2-4.63,4.49-8,4.49-3,0-4.91-.46-7.16-2.43l-2.13-2c-1-1-1.52-1.74-2.91-1.74C36.7,56.58,32.79,62.74,27.93,62.74Z"/><rect class="cls-2" width="100" height="100"/></g></g></svg>